# xmcd
#
# Track frame offsets: 
#        150
#        10728
#        20902
#        35382
#        48444
#        62559
#        75074
#        84547
#        99088
#        113346
#        119583
#        128541
#        141211
#
# Disc length: 2084 seconds
#
# Revision: 0
# Processed by: cddbd v1.5.2PL0 Copyright (c) Steve Scherf et al.
# Submitted via: ExactAudioCopy v0.95a5
#
DISCID=9208220d
DTITLE=Good Time Charlie - Mojo Energy
DYEAR=2008
DGENRE=Blues
TTITLE0=Mojo Energy
TTITLE1=You Cause Me Pain
TTITLE2=Dealin' With The Devil
TTITLE3=This Train
TTITLE4=Fools Paradise
TTITLE5=Brasero
TTITLE6=Bad Reputation
TTITLE7=You Know
TTITLE8=Cursed
TTITLE9=Las Vegas
TTITLE10=I Need You
TTITLE11=Time Is Runnin' Out
TTITLE12=Give You Up
EXTD=
EXTT0=
EXTT1=
EXTT2=
EXTT3=
EXTT4=
EXTT5=
EXTT6=
EXTT7=
EXTT8=
EXTT9=
EXTT10=
EXTT11=
EXTT12=
PLAYORDER=
